<?xml version="1.0" encoding="utf-8"?>
<!-- Generator: Adobe Illustrator 16.0.0, SVG Export Plug-In . SVG Version: 6.00 Build 0)  -->
<!DOCTYPE svg PUBLIC "-//W3C//DTD SVG 1.1//EN" "http://www.w3.org/Graphics/SVG/1.1/DTD/svg11.dtd">
<svg version="1.1" id="Ebene_1" xmlns="http://www.w3.org/2000/svg" xmlns:xlink="http://www.w3.org/1999/xlink" x="0px" y="0px"
	 width="218px" height="385.333px" viewBox="0 0 218 385.333" enable-background="new 0 0 218 385.333" xml:space="preserve">
<g>
	<path fill-rule="evenodd" clip-rule="evenodd" d="M213,384.99h-18L183,369H35l-12,16.333H5L0,369V109C0,48.801,48.801,0,109,0
		s109,48.801,109,109v260L213,384.99z M140,115.5c0-16.845-13.655-30.5-30.5-30.5S79,98.655,79,115.5c0,0.168,0.01,0.333,0.013,0.5
		h60.975C139.99,115.833,140,115.668,140,115.5z M108.616,220.585L130.898,180h-44.56L108.616,220.585z M77.604,195.26
		l-22.447,40.885l22.456,40.91l22.447-40.885L77.604,195.26z M117.166,236.161l22.429,40.86l22.474-40.934l-22.429-40.86
		L117.166,236.161z M148.393,180l22.232,40.503l6.375-11.61V180H148.393z M158.547,311.548C169.981,299.381,177,283.015,177,265
		v-1.711l-6.382-11.626l-22.474,40.935L158.547,311.548z M146.884,321.474l-7.296-13.292l-12.223,22.263
		C134.392,328.476,140.975,325.445,146.884,321.474z M108.862,332.996l22.176-40.39l-22.429-40.86L86.162,292.63l22.15,40.353
		C108.497,332.984,108.679,332.992,108.862,332.996z M89.672,330.196l-12.066-21.981l-7.056,12.853
		C76.341,325.045,82.776,328.155,89.672,330.196z M41,265c0,17.757,6.818,33.91,17.966,46.018l10.09-18.379L46.6,251.729L41,261.929
		V265z M46.607,220.568L68.881,180H41v30.354L46.607,220.568z M109,41c-37.555,0-68,30.445-68,68v7h23.016
		c-0.002-0.167-0.016-0.332-0.016-0.5C64,90.371,84.371,70,109.5,70S155,90.371,155,115.5c0,0.168-0.015,0.333-0.017,0.5H177v-7
		C177,71.445,146.556,41,109,41z"/>
</g>
</svg>
